<svg width="50" height="50" viewBox="0 0 50 50" fill="none" xmlns="http://www.w3.org/2000/svg">
<rect width="50" height="50" rx="25" fill="#014CC4"/>
<path d="M25 36.5C31.3513 36.5 36.5 31.3513 36.5 25C36.5 18.6487 31.3513 13.5 25 13.5C18.6487 13.5 13.5 18.6487 13.5 25C13.5 31.3513 18.6487 36.5 25 36.5Z" fill="white"/>
<path d="M25.0001 9.26737C28.3432 9.26737 31.4898 10.2998 34.1446 12.2172H32.6206C32.0798 12.2172 31.6373 12.6597 31.6373 13.2005C31.6373 13.7413 32.0798 14.1837 32.6206 14.1837H36.7995C37.3403 14.1837 37.7828 13.7413 37.7828 13.2005V9.02154C37.7828 8.48073 37.3403 8.03828 36.7995 8.03828C36.2587 8.03828 35.8163 8.48073 35.8163 9.02154V10.9881C32.7189 8.57908 28.9332 7.30078 25.0001 7.30078C15.2164 7.30078 7.3009 15.2163 7.3009 24.9999C7.3009 25.5407 7.74336 25.9832 8.28416 25.9832C8.82497 25.9832 9.26742 25.5407 9.26742 24.9999C9.26749 16.347 16.3471 9.26737 25.0001 9.26737Z" fill="white"/>
<path d="M41.7159 24.0166C41.1751 24.0166 40.7326 24.4591 40.7326 24.9999C40.7326 33.6528 33.653 40.7324 25.0001 40.7324C21.6569 40.7324 18.5104 39.7 15.8555 37.7826H17.3796C17.9204 37.7826 18.3628 37.3401 18.3628 36.7993C18.3628 36.2585 17.9204 35.8161 17.3796 35.8161H13.2005C12.6597 35.8161 12.2173 36.2585 12.2173 36.7993V40.9783C12.2173 41.5191 12.6597 41.9615 13.2005 41.9615C13.7413 41.9615 14.1838 41.5191 14.1838 40.9783V39.0117C17.2811 41.4207 21.0668 42.699 24.9999 42.699C34.7837 42.699 42.6991 34.7835 42.6991 24.9999C42.6992 24.4591 42.2567 24.0166 41.7159 24.0166Z" fill="white"/>
<path d="M22.1196 26.0811C23.837 25.1633 24.0088 23.6214 24.0088 23.1074C24.0088 21.6022 22.8409 20.354 21.3982 20.354C19.9555 20.354 18.7876 21.6022 18.7876 23.1441C18.7876 23.5846 19.0967 23.9518 19.5433 23.9518C19.9555 23.9518 20.299 23.6214 20.299 23.1441C20.299 22.4833 20.8143 21.9693 21.3982 21.9693C22.0165 21.9693 22.4974 22.52 22.4974 23.1441C22.4974 23.3644 22.3944 24.1353 21.4326 24.686C18.822 26.0811 18.7876 28.8345 18.7876 28.9446C18.7876 29.3851 19.0968 29.7523 19.5433 29.7523H23.2532C23.6653 29.7523 24.0088 29.4219 24.0088 28.9446C24.0088 28.5041 23.6997 28.1369 23.2532 28.1369H20.4365C20.6425 27.5128 21.0891 26.6317 22.1196 26.0811Z" fill="#014CC4"/>
<path d="M29.3825 29.7499C29.8203 29.7499 30.1487 29.3814 30.1487 28.9761V27.797H30.55C30.9877 27.797 31.3525 27.3917 31.3161 26.9127C31.2796 26.5074 30.8783 26.2126 30.477 26.2126H30.1487V21.1278C30.1487 20.6857 29.8203 20.354 29.3461 20.354H28.9448C28.6529 20.354 28.3975 20.5014 28.2516 20.7593L25.1507 26.6548C24.8588 27.1706 25.2601 27.797 25.8438 27.797H28.5435V28.9392C28.5799 29.3815 28.9448 29.7868 29.3825 29.7499ZM27.1572 26.2127L28.5799 23.5229V26.2127H27.1572Z" fill="#014CC4"/>
</svg>
