<svg width="50" height="51" viewBox="0 0 50 51" fill="none" xmlns="http://www.w3.org/2000/svg">
<rect y="0.5" width="50" height="50" rx="25" fill="#014CC4"/>
<path d="M18.4718 24.6042L22.3761 12.5118C22.4212 12.4073 22.4861 12.3131 22.5668 12.2347C22.6475 12.1563 22.7426 12.0952 22.8463 12.055C22.9501 12.0148 23.0606 11.9963 23.1714 12.0006C23.2821 12.0049 23.391 12.0318 23.4916 12.0799L24.8859 12.7997C25.4731 13.1151 25.9654 13.5903 26.3095 14.174C26.6536 14.7577 26.8364 15.4275 26.8381 16.1107V21.7251H35.762C36.1833 21.733 36.5974 21.8394 36.9732 22.0362C37.3489 22.2331 37.6766 22.5153 37.9315 22.8616C38.1865 23.208 38.3621 23.6095 38.4452 24.036C38.5283 24.4624 38.5167 24.9028 38.4113 25.324L35.6226 36.8406C35.4703 37.45 35.1288 37.9911 34.6503 38.3811C34.1718 38.7711 33.5828 38.9885 32.9733 39H14.2887C13.5491 39 12.8398 38.6967 12.3168 38.1567C11.7938 37.6168 11.5 36.8844 11.5 36.1208V27.4834C11.5 26.7198 11.7938 25.9875 12.3168 25.4475C12.8398 24.9076 13.5491 24.6042 14.2887 24.6042H18.4718ZM18.4718 24.6042V39" stroke="white" stroke-width="2" stroke-linecap="round" stroke-linejoin="round"/>
</svg>
