<svg width="50" height="50" viewBox="0 0 50 50" fill="none" xmlns="http://www.w3.org/2000/svg">
<rect width="50" height="50" rx="25" fill="#014CC4"/>
<path fill-rule="evenodd" clip-rule="evenodd" d="M32.4598 37.8241C31.4365 37.4361 30.5641 36.934 29.8769 36.4631C28.3697 37.0734 26.7229 37.4092 25 37.4092C17.8203 37.4092 12 31.5888 12 24.4092C12 17.2295 17.8203 11.4092 25 11.4092C32.1797 11.4092 38 17.2295 38 24.4092C38 27.1023 37.1798 29.6072 35.7757 31.6834C35.6866 33.4001 36.5882 34.9512 37.524 36.3238C38.3436 37.5258 38.1379 38.4946 36.6097 38.5812C35.9247 38.62 34.4431 38.5761 32.4598 37.8241ZM14.3636 24.4092C14.3636 18.5349 19.1257 13.7728 25 13.7728C30.8743 13.7728 35.6364 18.5349 35.6364 24.4092C35.6364 26.7141 34.9046 28.8447 33.6604 30.5856C33.1099 31.3561 33.393 32.7999 33.5819 33.6287C33.7652 34.4331 34.1629 35.2879 34.5557 36.0055C34.1797 35.9149 33.7586 35.7887 33.2978 35.614C32.2373 35.2118 31.361 34.6466 30.7429 34.1722C30.3922 33.903 29.9205 33.8521 29.5205 34.0403C28.15 34.6847 26.6187 35.0455 25 35.0455C19.1257 35.0455 14.3636 30.2835 14.3636 24.4092ZM20.3082 28.2412C20.1241 27.5051 20.7055 26.7731 21.4547 26.7726H28.5457C29.2939 26.7731 29.8762 27.5022 29.6922 28.2383C29.0802 30.3042 27.11 31.5001 25.0002 31.5001C22.9713 31.5001 20.827 30.3166 20.3082 28.2412ZM30.3182 22.0455C30.3182 23.0246 29.5245 23.8183 28.5455 23.8183C27.5664 23.8183 26.7727 23.0246 26.7727 22.0455C26.7727 21.0665 27.5664 20.2728 28.5455 20.2728C29.5245 20.2728 30.3182 21.0665 30.3182 22.0455ZM21.4545 23.8183C22.4336 23.8183 23.2273 23.0246 23.2273 22.0455C23.2273 21.0665 22.4336 20.2728 21.4545 20.2728C20.4755 20.2728 19.6818 21.0665 19.6818 22.0455C19.6818 23.0246 20.4755 23.8183 21.4545 23.8183Z" fill="white"/>
</svg>
