<svg width="191" height="214" viewBox="0 0 191 214" fill="none" xmlns="http://www.w3.org/2000/svg">
<path d="M191 61.5041V152.496C190.998 155.219 190.278 157.893 188.915 160.245C187.551 162.597 185.593 164.543 183.239 165.885L103.019 211.522C100.722 212.819 98.1333 213.5 95.5 213.5C92.8667 213.5 90.2776 212.819 87.9812 211.522L7.76124 165.885C5.40727 164.543 3.44885 162.597 2.08548 160.245C0.722108 157.893 0.00251325 155.219 0 152.496V61.5041C0.00247019 58.7811 0.722055 56.1074 2.08544 53.7555C3.44883 51.4035 5.40729 49.4573 7.76128 48.1152L87.9813 2.47845C90.2776 1.18128 92.8667 0.5 95.5 0.5C98.1333 0.5 100.722 1.18128 103.019 2.47845L183.239 48.1147C185.593 49.457 187.551 51.4033 188.915 53.7553C190.278 56.1073 190.997 58.7811 191 61.5041Z" fill="#014CC4"/>
</svg>
